HIERARCHY
ROOT Hips
{
	OFFSET 53.740200 -9.385695 93.686096
	CHANNELS 6 Xposition Yposition Zposition Xrotation Yrotation Zrotation
	JOINT spine
	{
		OFFSET 0.000000 -0.429886 7.475601
		CHANNELS 3 Xrotation Yrotation Zrotation
		JOINT spine1
		{
			OFFSET 0.000000 -0.000002 9.923012
			CHANNELS 3 Xrotation Yrotation Zrotation
			JOINT spine2
			{
				OFFSET 0.000000 -0.000002 9.508041
				CHANNELS 3 Xrotation Yrotation Zrotation
				JOINT Neck
				{
					OFFSET 0.000000 -1.163844 24.411095
					CHANNELS 3 Xrotation Yrotation Zrotation
					JOINT Head
					{
						OFFSET 0.000000 -0.000001 7.375229
						CHANNELS 3 Xrotation Yrotation Zrotation
						End Site
						{
							OFFSET 0.000000 5.887407 17.852203
						}
					}
				}
				JOINT RightShoulder
				{
					OFFSET -4.003559 0.557467 10.267906
					CHANNELS 3 Xrotation Yrotation Zrotation
					JOINT RightArm
					{
						OFFSET 0.000000 -0.000003 13.467300
						CHANNELS 3 Xrotation Yrotation Zrotation
						JOINT RightArmRoll
						{
							OFFSET 0.000000 -0.000001 6.798584
							CHANNELS 3 Xrotation Yrotation Zrotation
							JOINT RightForeArm
							{
								OFFSET 0.000000 -0.000003 19.801804
								CHANNELS 3 Xrotation Yrotation Zrotation
								JOINT RightForeArmRoll
								{
									OFFSET 0.000000 -0.000002 7.629059
									CHANNELS 3 Xrotation Yrotation Zrotation
									JOINT RightHand
									{
										OFFSET 0.000000 -0.000002 15.309799
										CHANNELS 3 Xrotation Yrotation Zrotation
										End Site
										{
											OFFSET 0.000000 0.000000 0.100006
										}
									}
								}
							}
						}
					}
				}
				JOINT LeftShoulder
				{
					OFFSET 4.003559 0.557467 10.267906
					CHANNELS 3 Xrotation Yrotation Zrotation
					JOINT LeftArm
					{
						OFFSET 0.000000 -0.000003 13.467300
						CHANNELS 3 Xrotation Yrotation Zrotation
						JOINT LeftArmRoll
						{
							OFFSET 0.000000 -0.000001 6.798584
							CHANNELS 3 Xrotation Yrotation Zrotation
							JOINT LeftForeArm
							{
								OFFSET 0.000000 -0.000003 19.801804
								CHANNELS 3 Xrotation Yrotation Zrotation
								JOINT LeftForeArmRoll
								{
									OFFSET 0.000000 -0.000002 7.629059
									CHANNELS 3 Xrotation Yrotation Zrotation
									JOINT LeftHand
									{
										OFFSET 0.000000 -0.000002 15.309799
										CHANNELS 3 Xrotation Yrotation Zrotation
										End Site
										{
											OFFSET 0.000000 0.000000 0.100006
										}
									}
								}
							}
						}
					}
				}
			}
		}
	}
	JOINT RightUpLeg
	{
		OFFSET -6.626091 1.019270 -1.215050
		CHANNELS 3 Xrotation Yrotation Zrotation
		JOINT RightUpLegRoll
		{
			OFFSET 0.000000 -0.000003 17.951698
			CHANNELS 3 Xrotation Yrotation Zrotation
			JOINT RightLeg
			{
				OFFSET 0.000000 0.000004 -22.230400
				CHANNELS 3 Xrotation Yrotation Zrotation
				JOINT RightLegRoll
				{
					OFFSET 0.000000 -0.000004 22.303200
					CHANNELS 3 Xrotation Yrotation Zrotation
					JOINT RightFoot
					{
						OFFSET 0.000000 -0.000003 18.563599
						CHANNELS 3 Xrotation Yrotation Zrotation
						JOINT RightToeBase
						{
							OFFSET 0.000000 -0.000003 15.518295
							CHANNELS 3 Xrotation Yrotation Zrotation
							End Site
							{
								OFFSET 0.006577 0.866262 7.515381
							}
						}
					}
				}
			}
		}
	}
	JOINT LeftUpLeg
	{
		OFFSET 6.626091 1.019270 -1.215050
		CHANNELS 3 Xrotation Yrotation Zrotation
		JOINT LeftUpLegRoll
		{
			OFFSET 0.000000 -0.000003 17.951797
			CHANNELS 3 Xrotation Yrotation Zrotation
			JOINT LeftLeg
			{
				OFFSET 0.000000 -0.000004 22.230293
				CHANNELS 3 Xrotation Yrotation Zrotation
				JOINT LeftLegRoll
				{
					OFFSET 0.000000 -0.000004 22.509308
					CHANNELS 3 Xrotation Yrotation Zrotation
					JOINT LeftFoot
					{
						OFFSET 0.000000 -0.000003 18.357498
						CHANNELS 3 Xrotation Yrotation Zrotation
						JOINT LeftToeBase
						{
							OFFSET 0.000000 -0.000002 15.518295
							CHANNELS 3 Xrotation Yrotation Zrotation
							End Site
							{
								OFFSET -0.029476 0.866261 7.515396
							}
						}
					}
				}
			}
		}
	}
}
MOTION
Frames: 8
Frame Time: 0.041667
53.126801 -9.422136 93.569809 -3.388994 0.767025 -0.618151 -0.809859 -0.267277 0.279207 2.384394 -0.535665 0.546258 4.029462 -0.529083 0.552636 7.460327 4.813095 -2.870069 2.638705 -7.630467 -2.390481 -3.761053 -70.643602 -5.557538 -51.153612 -100.520584 -32.098457 0.000000 0.000001 -0.000004 1.046984 -8.363216 -0.765434 0.000001 0.000011 -3.009792 -5.000223 -7.998942 0.000135 -0.694457 75.970002 2.731410 -64.100656 103.601286 41.609079 -0.000001 0.000000 0.000002 5.693440 3.410971 0.712491 -0.000002 -0.000018 3.008050 -5.000221 7.999650 -0.000060 1.261294 178.130446 -1.575495 179.999991 -0.000005 -1.058005 172.630094 -2.549789 -0.501702 -0.000004 -0.000000 0.108475 70.338196 6.819268 2.240633 25.456967 -7.355616 -0.000000 1.936055 178.635770 2.656330 -0.000005 -0.000004 -1.032600 -4.961228 2.362984 0.237897 0.000000 -0.000003 -0.049309 68.854898 -6.852014 -2.235797 25.456854 7.355621 0.000003 
53.107498 -9.407277 93.569305 -3.367541 0.780602 -0.618183 -0.807024 -0.269940 0.274394 2.390057 -0.540958 0.537423 4.035125 -0.534482 0.543864 7.397195 4.800662 -2.861314 2.659704 -7.620140 -2.383203 -3.704265 -70.722197 -5.502041 -52.064865 -100.559120 -32.909545 0.000001 -0.000000 -0.000005 0.975500 -8.296834 -0.779965 0.000001 0.000011 -3.009960 -5.000222 -7.998941 0.000135 -0.796391 75.907089 2.834531 -64.038993 103.688180 41.626182 -0.000001 0.000000 -0.000001 5.756392 3.447609 0.710870 -0.000003 -0.000018 3.008050 -5.000222 7.999650 -0.000058 1.240176 178.111444 -1.590577 179.999991 -0.000005 -1.056994 172.651227 -2.549911 -0.501760 -0.000004 -0.000001 0.108420 70.325465 6.819282 2.240615 25.456967 -7.355615 -0.000000 1.883852 178.618750 2.650133 -0.000005 -0.000004 -1.032600 -5.002279 2.361591 0.239307 -0.000000 -0.000003 -0.049577 68.871714 -6.851876 -2.235728 25.456863 7.355621 0.000003 
53.092400 -9.414557 93.568489 -3.345191 0.794167 -0.617850 -0.804369 -0.272628 0.269607 2.395359 -0.546303 0.528673 4.040439 -0.539931 0.535179 7.334480 4.789356 -2.853008 2.680674 -7.611331 -2.376225 -3.645221 -70.799692 -5.443974 -52.955140 -100.599411 -33.704193 0.000001 0.000001 -0.000004 0.901517 -8.233447 -0.794133 0.000001 0.000012 -3.010068 -5.000222 -7.998943 0.000135 -0.897057 75.844736 2.936360 -63.978601 103.775709 41.644046 -0.000002 -0.000000 0.000002 5.818581 3.483922 0.709180 -0.000000 -0.000018 3.008048 -5.000221 7.999648 -0.000061 1.218165 178.093440 -1.605754 179.999991 -0.000005 -1.056994 172.672701 -2.549045 -0.500677 -0.000005 -0.000001 0.108370 70.312522 6.819287 2.240610 25.456969 -7.355615 -0.000001 1.830309 178.601715 2.644272 -0.000005 -0.000004 -1.032600 -5.043668 2.359937 0.240701 0.000000 -0.000003 -0.049821 68.888748 -6.851708 -2.235742 25.456861 7.355621 0.000003 
53.089901 -9.411199 93.571709 -3.322209 0.807721 -0.617264 -0.801831 -0.275334 0.264841 2.400422 -0.551685 0.519982 4.045503 -0.545417 0.526553 7.272046 4.778831 -2.845022 2.701602 -7.603578 -2.369468 -3.584521 -70.876593 -5.384022 -53.828765 -100.641519 -34.485270 0.000000 0.000001 -0.000006 0.825785 -8.172125 -0.808008 0.000002 0.000011 -3.010132 -5.000221 -7.998943 0.000136 -0.996587 75.782636 3.037024 -63.919840 103.863606 41.663044 -0.000001 -0.000001 0.000002 5.880241 3.519997 0.707438 -0.000002 -0.000019 3.008049 -5.000219 7.999649 -0.000062 1.195538 178.074411 -1.621047 179.999991 -0.000005 -1.055997 172.694380 -2.549168 -0.500710 -0.000004 -0.000001 0.108322 70.299579 6.819288 2.240607 25.456962 -7.355614 -0.000000 1.775808 178.584667 2.638644 -0.000005 -0.000004 -1.032600 -5.085297 2.358102 0.242085 0.000000 -0.000003 -0.050048 68.905790 -6.851604 -2.235767 25.456861 7.355621 0.000003 
53.068802 -9.369744 93.570297 -3.298880 0.821272 -0.616538 -0.799367 -0.278049 0.260087 2.405344 -0.557088 0.511325 4.050427 -0.550923 0.517962 7.209791 4.768761 -2.837223 2.722518 -7.596437 -2.362832 -3.522596 -70.953002 -5.322681 -54.690701 -100.685458 -35.256641 -0.000001 0.000000 -0.000006 0.749067 -8.111989 -0.821644 0.000002 0.000011 -3.010179 -5.000223 -7.998943 0.000135 -1.095117 75.720693 3.136658 -63.861586 103.951777 41.682251 -0.000002 -0.000001 0.000001 5.941610 3.555953 0.705612 -0.000001 -0.000018 3.008049 -5.000223 7.999649 -0.000059 1.172535 178.055409 -1.636373 179.999991 -0.000005 -1.055997 172.716196 -2.548303 -0.499613 -0.000004 -0.000001 0.108277 70.286526 6.819278 2.240604 25.456964 -7.355615 -0.000001 1.720769 178.568643 2.633194 -0.000005 -0.000004 -1.032600 -5.127056 2.356156 0.243460 -0.000000 -0.000003 -0.050265 68.922927 -6.851463 -2.235781 25.456854 7.355620 0.000003 
53.062000 -9.375998 93.575905 -3.275458 0.834823 -0.615786 -0.796917 -0.280768 0.255337 2.410236 -0.562498 0.502678 4.055312 -0.556436 0.509380 7.147567 4.758784 -2.829492 2.743429 -7.589443 -2.356235 -3.460052 -71.029282 -5.260677 -55.545021 -100.731398 -36.020830 -0.000001 0.000000 -0.000005 0.672120 -8.052134 -0.835100 0.000002 0.000011 -3.010210 -5.000223 -7.998942 0.000135 -1.192780 75.658825 3.235398 -63.803843 104.040228 41.701884 -0.000002 -0.000001 0.000001 6.002894 3.591878 0.703718 -0.000002 -0.000018 3.008048 -5.000222 7.999649 -0.000062 1.149456 178.037391 -1.651691 179.999991 -0.000005 -1.055000 172.738039 -2.548427 -0.499639 -0.000004 -0.000001 0.108232 70.273480 6.819300 2.240612 25.456965 -7.355615 -0.000001 1.665597 178.551595 2.627788 -0.000005 -0.000004 -1.032600 -5.168854 2.354188 0.244831 0.000000 -0.000003 -0.050480 68.940173 -6.851321 -2.235787 25.456858 7.355620 0.000003 
53.094700 -9.301938 93.569702 -3.252216 0.848376 -0.615120 -0.794435 -0.283482 0.250579 2.415200 -0.567899 0.494014 4.060275 -0.561940 0.500782 7.085272 4.748568 -2.821699 2.764343 -7.582138 -2.349575 -3.397373 -71.105739 -5.198546 -56.395984 -100.779475 -36.780989 -0.000001 0.000001 -0.000006 0.595701 -7.991656 -0.848435 0.000001 0.000011 -3.010260 -5.000222 -7.998943 0.000134 -1.289684 75.596698 3.333357 -63.745671 104.128734 41.721053 -0.000001 -0.000001 0.000002 6.064359 3.627859 0.701752 -0.000001 -0.000018 3.008048 -5.000222 7.999649 -0.000060 1.126557 178.018376 -1.666980 179.999991 -0.000005 -1.055000 172.759854 -2.547547 -0.498542 -0.000004 -0.000000 0.108186 70.260524 6.819251 2.240597 25.456967 -7.355616 -0.000000 1.610692 178.534574 2.622358 -0.000005 -0.000004 -1.032600 -5.210583 2.352271 0.246202 0.000000 -0.000003 -0.050700 68.957330 -6.851201 -2.235701 25.456856 7.355620 0.000003 
53.078701 -9.305794 93.572403 -3.229426 0.861936 -0.614652 -0.791864 -0.286184 0.245810 2.420332 -0.573277 0.485311 4.065409 -0.567422 0.492142 7.022766 4.737782 -2.813732 2.785286 -7.574075 -2.342783 -3.335099 -71.182661 -5.136943 -57.248190 -100.829834 -37.540277 0.000000 -0.000000 -0.000007 0.520571 -7.929648 -0.861699 0.000001 0.000011 -3.010342 -5.000221 -7.998942 0.000136 -1.385967 75.534352 3.430662 -63.687259 104.217157 41.740239 -0.000002 -0.000001 -0.000001 6.126200 3.664014 0.699677 0.000000 -0.000018 3.008048 -5.000223 7.999649 -0.000062 1.104104 177.999374 -1.682179 179.999991 -0.000005 -1.054002 172.781465 -2.547670 -0.498578 -0.000005 -0.000001 0.108137 70.247492 6.819296 2.240604 25.456969 -7.355615 -0.000001 1.556454 178.517540 2.616813 -0.000005 -0.000004 -1.032600 -5.252141 2.350481 0.247578 0.000000 -0.000003 -0.050932 68.974372 -6.851066 -2.235722 25.456856 7.355620 0.000003 
